<svg xmlns="http://www.w3.org/2000/svg" viewBox="0 0 64 80" x="0px" y="0px"><title>telephone, communication, phone, user, checklist</title><g><path d="M58,47.553a14.352,14.352,0,0,1-5.9,11.66,14,14,0,0,1-12.565,2.15,59.015,59.015,0,0,1-38.9-38.9A14,14,0,0,1,2.785,9.9,14.354,14.354,0,0,1,14.446,4,10.243,10.243,0,0,1,24.464,12.21l.223,1.109a11.673,11.673,0,0,1-4.328,11.488,3.759,3.759,0,0,0-.863,5.051A44.961,44.961,0,0,0,32.142,42.5a3.76,3.76,0,0,0,5.051-.863A11.669,11.669,0,0,1,48.68,37.313l1.109.222A10.243,10.243,0,0,1,58,47.553ZM41,19H37a2,2,0,0,0-2,2v1h8V21A2,2,0,0,0,41,19Zm-2-5a3,3,0,1,0-3-3A3,3,0,0,0,39,14ZM64,3V27a1,1,0,0,1-1,1H46.22l-12.8,5.909A1,1,0,0,1,32,33V28H29a1,1,0,0,1-1-1V3a1,1,0,0,1,1-1H63A1,1,0,0,1,64,3ZM34,11a5,5,0,1,0,5-5A5.006,5.006,0,0,0,34,11ZM45,21a4,4,0,0,0-4-4H37a4,4,0,0,0-4,4v2a1,1,0,0,0,1,1H44a1,1,0,0,0,1-1Zm13.707-6.706a1,1,0,0,0-1.414,0L52,19.586l-2.293-2.293a1,1,0,0,0-1.414,1.414l3,3a1,1,0,0,0,1.414,0l6-6A1,1,0,0,0,58.707,14.293Zm0-8a1,1,0,0,0-1.414,0L52,11.586,49.707,9.293a1,1,0,0,0-1.414,1.414l3,3a1,1,0,0,0,1.414,0l6-6A1,1,0,0,0,58.707,6.293Z"/></g><text x="0" y="79" fill="#000000" font-size="5px" font-weight="bold" font-family="'Helvetica Neue', Helvetica, Arial-Unicode, Arial, Sans-serif">Created by Kmg Design</text><text x="0" y="84" fill="#000000" font-size="5px" font-weight="bold" font-family="'Helvetica Neue', Helvetica, Arial-Unicode, Arial, Sans-serif">from the Noun Project</text></svg>