<svg xmlns="http://www.w3.org/2000/svg" viewBox="0 0 64 80" x="0px" y="0px"><title>dictionary</title><g data-name="Layer 26"><path d="M52.25.94H11.5a1,1,0,0,0-1,1V57.43a1,1,0,0,0,1,1h4.95v3.84a1,1,0,0,0,.58.91A1,1,0,0,0,18.09,63l2.6-2.16L23.29,63a1,1,0,0,0,.64.23,1,1,0,0,0,.42-.09,1,1,0,0,0,.58-.91V58.43H52.25a1,1,0,0,0,1-1V1.94A1,1,0,0,0,52.25.94Zm-39.75,2H51.25V48.36H12.5Zm10.43,57.2-1.6-1.33a1,1,0,0,0-.64-.23,1,1,0,0,0-.64.23l-1.6,1.33V54.4h4.48Zm2-3.71v-3a1,1,0,0,0-1-1H14.06a1,1,0,1,0,0,2h2.39v2H12.5V50.36H51.25v2H47.42a1,1,0,0,0,0,2h3.83v2Zm-8-38.4H28.72a1,1,0,0,0,1-1V9.23a1,1,0,0,0-1-1H16.93a1,1,0,0,0-1,1V17A1,1,0,0,0,16.93,18Zm10.79-2H17.93v-1.9h4.89a1,1,0,0,0,1-1v-2.9h3.9Zm-5.9-5.8v1.9H17.93v-1.9Zm26,10.52H36a1,1,0,0,0-1,1v7.8a1,1,0,0,0,1,1H47.81a1,1,0,0,0,1-1v-7.8A1,1,0,0,0,47.81,20.75Zm-1,2v1.9H37v-1.9ZM37,28.55v-1.9h9.79v1.9ZM48.81,39.87v4.18a1,1,0,0,1-1,1H27.71a1,1,0,1,1,0-2h19.1V40.87H42.32a1,1,0,0,1,0-2h5.49A1,1,0,0,1,48.81,39.87ZM23.46,44.05a1,1,0,0,1-1,1H16.93a1,1,0,0,1-1-1V39.87a1,1,0,0,1,1-1H39.65a1,1,0,0,1,0,2H17.93v2.18h4.53A1,1,0,0,1,23.46,44.05Zm6.07-21.76,2,2.78a1,1,0,0,1,0,1.16l-2,2.77a1,1,0,0,1-.81.42,1,1,0,0,1-.58-.18,1,1,0,0,1-.24-1.4l.85-1.19H25a1,1,0,0,1-1-1V21.07a1,1,0,0,1,2,0v3.58h2.71l-.85-1.21a1,1,0,0,1,1.63-1.15Zm5.08-8.58a1,1,0,0,1,0-1.15l2-2.78a1,1,0,0,1,1.64,1.15l-.86,1.21h4.57a1,1,0,0,1,1,1v4.58a1,1,0,0,1-2,0V14.13H37.35l.85,1.21A1,1,0,0,1,38,16.72a1,1,0,0,1-.58.19,1,1,0,0,1-.82-.43ZM41.2,53.4a1,1,0,0,1-1,1H27.71a1,1,0,0,1,0-2H40.2A1,1,0,0,1,41.2,53.4Zm3.43-.71a1,1,0,0,1,.29.71,1,1,0,0,1-.29.7,1,1,0,0,1-1.42,0,1,1,0,0,1-.29-.7,1,1,0,0,1,.29-.71A1,1,0,0,1,44.63,52.69ZM26,43.67a1.09,1.09,0,0,1,.08.39,1,1,0,0,1-.29.7,1,1,0,0,1-1.42,0,1,1,0,0,1,0-1.41,1,1,0,0,1,.91-.27l.18.05.18.1a.79.79,0,0,1,.15.12A1,1,0,0,1,26,43.67Z"/></g><text x="0" y="79" fill="#000000" font-size="5px" font-weight="bold" font-family="'Helvetica Neue', Helvetica, Arial-Unicode, Arial, Sans-serif">Created by agus raharjo</text><text x="0" y="84" fill="#000000" font-size="5px" font-weight="bold" font-family="'Helvetica Neue', Helvetica, Arial-Unicode, Arial, Sans-serif">from the Noun Project</text></svg>