<svg xmlns="http://www.w3.org/2000/svg" data-name="Layer 1" viewBox="0 0 64 80" x="0px" y="0px"><title>questionaire-quiz-query-check-exam</title><path d="M61,4H6.96582V3H3V7H6.96582V6H61a1,1,0,0,0,0-2Z"/><path d="M61,14H6.96582V13H3v4H6.96582V16H61a1,1,0,0,0,0-2Z"/><path d="M61,24H6.96582V23H3v4H6.96582V26H61a1,1,0,0,0,0-2Z"/><path d="M61,34H57.18994a.98969.98969,0,0,0-.67.26776,15.594,15.594,0,0,0-22.36273-.00213A.98935.98935,0,0,0,33.49023,34H6.79388V33H3v4H6.79388V36H32.70526a15.66412,15.66412,0,0,0-2.98212,8.31647A.99129.99129,0,0,0,29,44H6.8125l-.00018.00006V43H3v4H6.81232V45.99994L6.8125,46H29a.995.995,0,0,0,.69739-.28619A15.65464,15.65464,0,1,0,57.96985,36H61a1,1,0,0,0,0-2ZM46.3374,58.05078a1,1,0,0,1-2,0V56.085a1,1,0,1,1,2,0Zm0-8.39844v3.4834a1,1,0,0,1-2,0V48.71191a.99974.99974,0,0,1,1-1,6.37312,6.37312,0,1,0-6.34179-6.373,5.93493,5.93493,0,0,0,.23339,1.68261.99992.99992,0,1,1-1.918.56641,7.91434,7.91434,0,0,1-.31543-2.249,8.34186,8.34186,0,1,1,9.34179,8.31347Z"/><path d="M15.34521,58.18164a.99928.99928,0,0,1-.74951-.33691l-1.93115-2.18164a1.00036,1.00036,0,0,1,1.498-1.32618l1.34863,1.52344,6.79913-4.60889V49h-12V61h12V53.66833l-6.4046,4.34144A1.00194,1.00194,0,0,1,15.34521,58.18164Z"/><path d="M24.439,49.80859l-2.1286,1.44287v2.41687L25.561,51.46484A1.00028,1.00028,0,0,0,24.439,49.80859Z"/><text x="0" y="79" fill="#000000" font-size="5px" font-weight="bold" font-family="'Helvetica Neue', Helvetica, Arial-Unicode, Arial, Sans-serif">Created by auttapol</text><text x="0" y="84" fill="#000000" font-size="5px" font-weight="bold" font-family="'Helvetica Neue', Helvetica, Arial-Unicode, Arial, Sans-serif">from the Noun Project</text></svg>